<mxfile host="65bd71144e">
    <diagram id="XAytL_F4SCksYBYiZP_R" name="Page-1">
        <mxGraphModel dx="1884" dy="2089" grid="1" gridSize="10" guides="1" tooltips="1" connect="1" arrows="1" fold="1" page="1" pageScale="1" pageWidth="850" pageHeight="1100" math="0" shadow="0">
            <root>
                <mxCell id="0"/>
                <mxCell id="1" parent="0"/>
                <mxCell id="3" value="nab bar and title" style="rounded=0;whiteSpace=wrap;html=1;" vertex="1" parent="1">
                    <mxGeometry x="-10" y="-1090" width="830" height="80" as="geometry"/>
                </mxCell>
                <mxCell id="4" value="picture&lt;br&gt;of&lt;br&gt;Me" style="rounded=0;whiteSpace=wrap;html=1;fontSize=52;" vertex="1" parent="1">
                    <mxGeometry x="300" y="-820" width="220" height="230" as="geometry"/>
                </mxCell>
                <mxCell id="5" value="about me" style="whiteSpace=wrap;html=1;aspect=fixed;fontSize=13;" vertex="1" parent="1">
                    <mxGeometry x="570" y="-830" width="230" height="230" as="geometry"/>
                </mxCell>
                <mxCell id="6" value="" style="whiteSpace=wrap;html=1;aspect=fixed;fontSize=30;" vertex="1" parent="1">
                    <mxGeometry x="430" y="-850" width="80" height="80" as="geometry"/>
                </mxCell>
                <mxCell id="10" value="project&lt;br&gt;1" style="whiteSpace=wrap;html=1;aspect=fixed;fontSize=30;" vertex="1" parent="1">
                    <mxGeometry x="50" y="-420" width="180" height="180" as="geometry"/>
                </mxCell>
                <mxCell id="11" value="project&amp;nbsp;&lt;br&gt;2" style="whiteSpace=wrap;html=1;aspect=fixed;fontSize=30;" vertex="1" parent="1">
                    <mxGeometry x="320" y="-420" width="180" height="180" as="geometry"/>
                </mxCell>
                <mxCell id="12" value="project&amp;nbsp;&lt;br&gt;3" style="whiteSpace=wrap;html=1;aspect=fixed;fontSize=30;" vertex="1" parent="1">
                    <mxGeometry x="595" y="-420" width="180" height="180" as="geometry"/>
                </mxCell>
                <mxCell id="15" value="skills" style="rounded=0;whiteSpace=wrap;html=1;fontSize=30;" vertex="1" parent="1">
                    <mxGeometry x="80" y="-210" width="120" height="60" as="geometry"/>
                </mxCell>
                <mxCell id="16" value="skills" style="rounded=0;whiteSpace=wrap;html=1;fontSize=30;" vertex="1" parent="1">
                    <mxGeometry x="345" y="-210" width="120" height="60" as="geometry"/>
                </mxCell>
                <mxCell id="17" value="skills" style="rounded=0;whiteSpace=wrap;html=1;fontSize=30;" vertex="1" parent="1">
                    <mxGeometry x="640" y="-210" width="120" height="60" as="geometry"/>
                </mxCell>
                <mxCell id="18" value="" style="endArrow=none;html=1;" edge="1" parent="1" target="8">
                    <mxGeometry width="50" height="50" relative="1" as="geometry">
                        <mxPoint y="-400" as="sourcePoint"/>
                        <mxPoint x="380.07692307692287" y="-1010" as="targetPoint"/>
                    </mxGeometry>
                </mxCell>
                <mxCell id="8" value="skills" style="whiteSpace=wrap;html=1;aspect=fixed;fontSize=30;" vertex="1" parent="1">
                    <mxGeometry x="10" y="-830" width="230" height="230" as="geometry"/>
                </mxCell>
            </root>
        </mxGraphModel>
    </diagram>
</mxfile>